<?xml version="1.0" encoding="UTF-8" standalone="no"?>
<svg
   xmlns:dc="http://purl.org/dc/elements/1.1/"
   xmlns:cc="http://creativecommons.org/ns#"
   xmlns:rdf="http://www.w3.org/1999/02/22-rdf-syntax-ns#"
   xmlns:svg="http://www.w3.org/2000/svg"
   xmlns="http://www.w3.org/2000/svg"
   viewBox="0 0 1333.3333 1333.3333"
   height="1333.3333"
   width="1333.3333"
   xml:space="preserve"
   id="svg2"
   version="1.1"><metadata
     id="metadata8"><rdf:RDF><cc:Work
         rdf:about=""><dc:format>image/svg+xml</dc:format><dc:type
           rdf:resource="http://purl.org/dc/dcmitype/StillImage" /></cc:Work></rdf:RDF></metadata><defs
     id="defs6" /><g
     transform="matrix(1.3333333,0,0,-1.3333333,0,1333.3333)"
     id="g10"><g
       transform="scale(0.1)"
       id="g12"><path
         id="path14"
         style="fill:transparent;fill-opacity:1;fill-rule:nonzero;stroke:none"
         d="M 10000,0 H 0 V 10000 H 10000 V 0" /><path
         id="path16"
         style="fill:transparent;fill-opacity:1;fill-rule:nonzero;stroke:none"
         d="M 7928.51,2710 H 2071.49 c -25.14,0 -47.61,-11.55 -56.3,-28.93 l -95.79,-191.58 c -14.43,-28.86 14.56,-59.49 56.3,-59.49 h 6048.6 c 41.74,0 70.73,30.63 56.3,59.49 l -95.79,191.58 c -8.69,17.38 -31.16,28.93 -56.3,28.93" /><path
         id="path18"
         style="fill:#d2e0e5;fill-opacity:1;fill-rule:nonzero;stroke:none"
         d="M 5560,3506.67 H 4440 L 4240,2590 h 1520 l -200,916.67" /><path
         id="path20"
         style="fill:#2d2e2e;fill-opacity:1;fill-rule:nonzero;stroke:none"
         d="m 8360,7370 c 0,110.46 -89.54,200 -200,200 H 1840 c -110.46,0 -200,-89.54 -200,-200 V 4110 h 6720 v 3260" /><path
         id="path22"
         style="fill:#383a3b;fill-opacity:1;fill-rule:nonzero;stroke:none"
         d="m 8010.35,7310 h -6020.7 c -55.22,0 -100,-44.77 -100,-100 V 4470 c 0,-55.23 44.78,-100 100,-100 h 6020.7 c 55.22,0 100,44.77 100,100 v 2740 c 0,55.23 -44.78,100 -100,100" /><path
         id="path24"
         style="fill:#d2e0e5;fill-opacity:1;fill-rule:nonzero;stroke:none"
         d="m 1640,4110 v -626.67 c 0,-110.45 89.54,-200 200,-200 h 6320 c 110.46,0 200,89.55 200,200 V 4110 H 1640" /><path
         id="path26"
         style="fill:#a6b1b6;fill-opacity:1;fill-rule:nonzero;stroke:none"
         d="m 5125,3696.67 c 0,-69.04 -55.96,-125 -125,-125 -69.04,0 -125,55.96 -125,125 0,69.03 55.96,125 125,125 69.04,0 125,-55.97 125,-125" /><path
         id="path28"
         style="fill:#c8d0d1;fill-opacity:1;fill-rule:nonzero;stroke:none"
         d="M 5883.33,2450 H 4116.67 c -38.66,0 -70,31.34 -70,70 v 0 c 0,38.66 31.34,70 70,70 h 1766.66 c 38.66,0 70,-31.34 70,-70 v 0 c 0,-38.66 -31.34,-70 -70,-70" /><path
         id="path30"
         style="fill:#a6b1b6;fill-opacity:1;fill-rule:nonzero;stroke:none"
         d="M 5684.4,2936.6 H 4315.6 l 75.6,346.8 h 1217.6 l 75.6,-346.8" /></g></g></svg>