<?xml version="1.0" encoding="UTF-8" standalone="no"?>
<svg
   xmlns:dc="http://purl.org/dc/elements/1.1/"
   xmlns:cc="http://creativecommons.org/ns#"
   xmlns:rdf="http://www.w3.org/1999/02/22-rdf-syntax-ns#"
   xmlns:svg="http://www.w3.org/2000/svg"
   xmlns="http://www.w3.org/2000/svg"
   viewBox="0 0 6666.6665 6666.6665"
   height="6666.6665"
   width="6666.6665"
   xml:space="preserve"
   id="svg2"
   version="1.1"><metadata
     id="metadata8"><rdf:RDF><cc:Work
         rdf:about=""><dc:format>image/svg+xml</dc:format><dc:type
           rdf:resource="http://purl.org/dc/dcmitype/StillImage" /></cc:Work></rdf:RDF></metadata><defs
     id="defs6"><clipPath
       id="clipPath100"
       clipPathUnits="userSpaceOnUse"><path
         id="path98"
         d="m 24870,4901 c -9665,0 -17500.02,806.3 -17500.02,1801 0,994.7 7835.02,1801.1 17500.02,1801.1 9665,0 17500,-806.4 17500,-1801.1 0,-994.7 -7835,-1801 -17500,-1801 m 0,3585.5 c -9576,0 -17338.9,-799 -17338.9,-1784.5 0,-985.5 7762.9,-1784.5 17338.9,-1784.5 9576,0 17338.9,799 17338.9,1784.5 0,985.5 -7762.9,1784.5 -17338.9,1784.5" /></clipPath></defs><g
     transform="matrix(1.3333333,0,0,-1.3333333,0,6666.6667)"
     id="g10"><g
       transform="scale(0.1)"
       id="g12"><g
         transform="scale(3.06748)"
         id="g14"><path
           id="path16"
           style="fill:transparent;fill-opacity:1;fill-rule:nonzero;stroke:none"
           d="M 16300,0 H 0 V 16300 H 16300 V 0" /></g><g
         transform="scale(2.58527)"
         id="g18"><path
           id="path20"
           style="fill:#83d39e;fill-opacity:1;fill-rule:nonzero;stroke:none"
           d="m 10610.6,4354.09 h -96.7 V 16300 h 96.7 V 4354.09" /></g><g
         transform="scale(2.58527)"
         id="g22"><path
           id="path24"
           style="fill:#83d39e;fill-opacity:1;fill-rule:nonzero;stroke:none"
           d="m 8727.05,4394.51 h -96.7 V 16300 h 96.7 V 4394.51" /></g><g
         transform="scale(2.53846)"
         id="g26"><path
           id="path28"
           style="fill:#70a887;fill-opacity:1;fill-rule:nonzero;stroke:none"
           d="M 13662.8,5704.63 7573.95,16250.8 7659.24,16300 13748,5753.88 l -85.2,-49.25" /></g><g
         transform="scale(2.38527)"
         id="g30"><path
           id="path32"
           style="fill:#9ecedc;fill-opacity:1;fill-rule:nonzero;stroke:none"
           d="m 12761.4,5069.2 -6453.85,11178.4 90.8,52.4 6453.85,-11178.4 -90.8,-52.4" /></g><g
         transform="scale(2.43172)"
         id="g34"><path
           id="path36"
           style="fill:#78a2a2;fill-opacity:1;fill-rule:nonzero;stroke:none"
           d="M 16248.6,8664.16 5283.34,14995 l 51.41,89 10965.25,-6330.8 -51.4,-89.04" /></g><g
         transform="scale(2.28424)"
         id="g38"><path
           id="path40"
           style="fill:#a0db86;fill-opacity:1;fill-rule:nonzero;stroke:none"
           d="m 16245.3,7369.63 -11714.07,6763.17 54.72,94.7 11714.05,-6763.09 -54.7,-94.78" /></g><g
         transform="scale(2.47694)"
         id="g42"><path
           id="path44"
           style="fill:#73a870;fill-opacity:1;fill-rule:nonzero;stroke:none"
           d="M 16300,11774.2 H 3855.88 v 100.9 H 16300 v -100.9" /></g><g
         transform="scale(2.48155)"
         id="g46"><path
           id="path48"
           style="fill:#73a870;fill-opacity:1;fill-rule:nonzero;stroke:none"
           d="M 16300,9790.11 H 3848.73 v 100.74 H 16300 v -100.74" /></g><g
         transform="scale(2.27464)"
         id="g50"><path
           id="path52"
           style="fill:#78a2a2;fill-opacity:1;fill-rule:nonzero;stroke:none"
           d="m 4563.79,9300.36 -54.95,95.18 11736.16,6775.86 55,-95.2 L 4563.79,9300.36" /></g><g
         transform="scale(2.42604)"
         id="g54"><path
           id="path56"
           style="fill:#a0db86;fill-opacity:1;fill-rule:nonzero;stroke:none"
           d="m 5274.84,6977.29 -51.52,89.24 11025.18,6365.37 51.5,-89.3 L 5274.84,6977.29" /></g><g
         transform="scale(2.54087)"
         id="g58"><path
           id="path60"
           style="fill:#70a887;fill-opacity:1;fill-rule:nonzero;stroke:none"
           d="m 5970.62,5773.72 -85.21,49.2 6048.99,10477.08 85.2,-49.2 L 5970.62,5773.72" /></g><g
         transform="scale(2.39466)"
         id="g62"><path
           id="path64"
           style="fill:#9ecedc;fill-opacity:1;fill-rule:nonzero;stroke:none"
           d="m 8076.36,5075.13 -90.41,52.2 6450.55,11172.67 90.4,-52.2 L 8076.36,5075.13" /></g><g
         transform="scale(2.59253)"
         id="g66"><path
           id="path68"
           style="fill:#bbbcbd;fill-opacity:1;fill-rule:nonzero;stroke:none"
           d="m 9643.09,4504.56 c -3199.69,0 -5793.57,2593.88 -5793.57,5793.54 0,3199.7 2593.88,5793.6 5793.57,5793.6 3199.71,0 5793.61,-2593.9 5793.61,-5793.6 0,-3199.66 -2593.9,-5793.54 -5793.61,-5793.54 z m 0,11795.44 c -3314.75,0 -6001.86,-2687.1 -6001.86,-6001.9 0,-3314.69 2687.11,-6001.83 6001.86,-6001.83 3314.71,0 6001.91,2687.14 6001.91,6001.83 0,3314.8 -2687.2,6001.9 -6001.91,6001.9" /></g><g
         transform="scale(2.67918)"
         id="g70"><path
           id="path72"
           style="fill:#78a2a2;fill-opacity:1;fill-rule:nonzero;stroke:none"
           d="m 9331.23,4078.12 c -59.98,0 -119.48,15.41 -179.01,17.24 -59.95,1.83 -120.26,-9.89 -179.72,-6.27 -59.83,3.7 -118.32,22.7 -177.63,28.18 -59.68,5.53 -120.64,-2.42 -179.76,4.89 -59.49,7.36 -116.71,29.97 -175.61,39.16 -59.2,9.18 -120.52,5.03 -179.12,16.05 -58.87,11.04 -114.63,37.17 -172.86,50.01 -58.52,12.88 -119.96,12.58 -177.81,27.21 -58.08,14.71 -112.09,44.31 -169.46,60.77 -57.59,16.53 -118.91,20.04 -175.76,38.29 -57.07,18.33 -109.14,51.25 -165.42,71.29 -56.44,20.08 -117.47,27.44 -173.08,49.23 -55.8,21.88 -105.78,57.97 -160.72,81.52 -55.09,23.59 -115.52,34.75 -169.72,59.98 -54.34,25.31 -102.01,64.46 -155.42,91.41 -53.52,26.95 -113.17,41.88 -165.72,70.47 -52.67,28.63 -97.87,70.73 -149.56,100.93 -51.73,30.27 -110.37,48.86 -161.09,80.69 -50.8,31.84 -93.35,76.63 -143.11,110 -49.79,33.44 -107.2,55.65 -155.91,90.55 -48.74,34.97 -88.49,82.3 -136.12,118.73 -47.66,36.43 -103.61,62.15 -150.12,100.03 -46.54,37.89 -83.31,87.6 -128.66,126.91 -45.39,39.3 -99.62,68.45 -143.77,109.13 -44.16,40.69 -77.87,92.61 -120.75,134.64 -42.89,42.06 -95.29,74.5 -136.87,117.83 -41.58,43.33 -72.11,97.23 -112.39,141.87 -40.23,44.57 -90.55,80.21 -129.48,126.05 -38.85,45.83 -66.06,101.52 -103.54,148.55 -37.47,46.99 -85.54,85.66 -121.6,133.85 -36.02,48.11 -59.8,105.37 -94.36,154.67 -34.56,49.2 -80.17,90.78 -113.24,141.13 -33.03,50.24 -53.26,108.88 -84.77,160.2 -31.5,51.28 -74.5,95.62 -104.43,147.92 -29.9,52.21 -46.51,111.97 -74.88,165.2 -28.25,53.11 -68.49,100.06 -95.17,154.15 -26.65,53.93 -39.61,114.66 -64.61,169.53 -25.01,54.79 -62.26,104.13 -85.63,159.79 -23.25,55.54 -32.43,116.9 -54.08,173.3 -21.57,56.17 -55.73,107.79 -75.62,164.82 -19.82,56.85 -25.23,118.7 -43.33,176.32 -18.11,57.45 -49.05,111.08 -65.38,169.27 -16.3,57.97 -17.88,120.04 -32.44,178.72 -14.5,58.41 -42.09,113.91 -54.85,173.03 -12.69,58.83 -10.47,120.9 -21.41,180.39 -10.88,59.2 -35.02,116.31 -44.14,176.14 -9.07,59.5 -3.06,121.31 -10.35,181.36 -7.24,59.76 -27.85,118.29 -33.31,178.56 -5.44,59.95 4.31,121.24 0.68,181.7 -3.61,60.06 -20.65,119.7 -22.45,180.24 -1.8,60.17 11.62,120.75 11.62,181.33 0,60.62 -13.42,121.22 -11.62,181.32 1.8,60.5 18.84,120.2 22.45,180.3 3.63,60.4 -6.12,121.7 -0.69,181.6 5.47,60.4 26.08,118.8 33.32,178.6 7.29,60.1 1.28,121.9 10.35,181.4 9.12,59.8 33.26,116.9 44.14,176.1 10.94,59.5 8.72,121.6 21.41,180.4 12.76,59.2 40.35,114.7 54.85,173.1 14.56,58.6 16.14,120.7 32.44,178.7 16.37,58.2 47.31,111.8 65.38,169.3 18.1,57.6 23.51,119.4 43.33,176.3 19.89,57 54.05,108.6 75.62,164.8 21.65,56.4 30.83,117.8 54.12,173.3 23.33,55.7 60.62,105 85.59,159.8 25.04,54.9 37.96,115.6 64.61,169.6 26.68,54 66.92,101 95.21,154.1 28.33,53.2 44.94,113 74.84,165.2 29.93,52.3 72.97,96.6 104.43,147.9 31.54,51.3 51.74,109.9 84.77,160.2 33.07,50.3 78.72,91.9 113.24,141.1 34.6,49.3 58.34,106.6 94.36,154.7 36.06,48.2 84.13,86.9 121.6,133.9 37.51,47 64.69,102.7 103.58,148.5 38.89,45.8 89.21,81.5 129.48,126.1 40.27,44.6 70.77,98.5 112.39,141.8 41.58,43.3 93.98,75.8 136.87,117.8 42.88,42.1 76.59,94 120.74,134.7 44.12,40.7 98.39,69.8 143.78,109.1 45.31,39.3 82.11,89 128.66,126.9 46.5,37.9 102.42,63.6 150.12,100 47.62,36.5 87.38,83.8 136.12,118.8 48.71,34.9 106.08,57.1 155.91,90.5 49.75,33.4 92.27,78.2 143.07,110 50.76,31.8 109.36,50.5 161.13,80.7 51.65,30.2 96.85,72.3 149.52,100.9 52.55,28.6 112.23,43.5 165.76,70.5 53.37,26.9 101.08,66.1 155.38,91.4 54.2,25.3 114.67,36.4 169.76,60 54.9,23.5 104.92,59.7 160.72,81.5 55.61,21.8 116.6,29.2 173.07,49.3 56.25,20 108.36,52.9 165.39,71.2 56.85,18.3 118.21,21.8 175.8,38.3 57.37,16.5 111.38,46.1 169.46,60.8 57.81,14.6 119.29,14.3 177.77,27.2 58.27,12.8 113.99,39 172.86,50 58.63,11 119.92,6.9 179.12,16.1 58.9,9.1 116.12,31.8 175.61,39.1 59.12,7.3 120.08,-0.6 179.76,4.9 59.31,5.5 117.8,24.5 177.63,28.2 59.46,3.6 119.77,-8.1 179.72,-6.3 59.53,1.9 119.03,17.2 179.01,17.2 59.94,0 119.47,-15.3 179.01,-17.2 59.9,-1.8 120.26,9.9 179.72,6.3 59.83,-3.7 118.32,-22.7 177.63,-28.2 59.68,-5.5 120.63,2.4 179.71,-4.9 59.5,-7.3 116.8,-30 175.7,-39.1 59.2,-9.2 120.5,-5.1 179.1,-16.1 58.8,-11 114.6,-37.2 172.8,-50 58.6,-12.9 120,-12.6 177.8,-27.2 58.1,-14.7 112.1,-44.3 169.5,-60.8 57.6,-16.5 118.9,-20 175.8,-38.3 57,-18.3 109.1,-51.2 165.4,-71.2 56.4,-20.1 117.4,-27.5 173.1,-49.3 55.8,-21.9 105.7,-58 160.7,-81.5 55.1,-23.6 115.5,-34.8 169.7,-60 54.3,-25.3 102,-64.5 155.4,-91.4 53.5,-27 113.2,-41.9 165.7,-70.5 52.7,-28.6 97.9,-70.7 149.6,-100.9 51.7,-30.3 110.4,-48.9 161.1,-80.7 50.8,-31.8 93.4,-76.6 143.1,-110 49.8,-33.4 107.2,-55.7 155.9,-90.6 48.8,-34.9 88.5,-82.3 136.1,-118.7 47.7,-36.4 103.6,-62.1 150.2,-100 46.5,-37.9 83.3,-87.6 128.6,-126.9 45.4,-39.3 99.6,-68.5 143.8,-109.2 44.1,-40.7 77.8,-92.6 120.7,-134.6 42.9,-42 95.3,-74.5 136.9,-117.8 41.6,-43.4 72.1,-97.3 112.4,-141.9 40.2,-44.6 90.5,-80.2 129.4,-126.1 38.9,-45.7 66.1,-101.4 103.6,-148.5 37.5,-47 85.6,-85.7 121.6,-133.8 36,-48.2 59.8,-105.4 94.4,-154.7 34.5,-49.2 80.1,-90.8 113.2,-141.1 33,-50.3 53.3,-108.9 84.8,-160.2 31.5,-51.3 74.5,-95.6 104.4,-148 29.9,-52.1 46.5,-111.9 74.9,-165.2 28.2,-53.1 68.5,-100 95.2,-154.1 26.6,-54 39.5,-114.6 64.6,-169.6 24.9,-54.7 62.2,-104.1 85.6,-159.7 23.3,-55.5 32.4,-116.9 54.1,-173.3 21.5,-56.2 55.7,-107.8 75.6,-164.8 19.8,-56.9 25.2,-118.7 43.3,-176.3 18.1,-57.5 49,-111.1 65.4,-169.3 16.3,-58 17.9,-120.1 32.4,-178.7 14.5,-58.5 42.1,-113.9 54.9,-173.1 12.7,-58.8 10.4,-120.9 21.4,-180.4 10.9,-59.2 35,-116.3 44.1,-176.1 9.1,-59.5 3.1,-121.3 10.4,-181.4 7.3,-59.8 27.9,-118.2 33.3,-178.5 5.5,-60 -4.3,-121.3 -0.7,-181.7 3.6,-60.1 20.7,-119.8 22.5,-180.3 1.8,-60.1 -11.6,-120.7 -11.6,-181.32 0,-60.58 13.4,-121.16 11.6,-181.29 -1.8,-60.58 -18.9,-120.22 -22.5,-180.28 -3.6,-60.46 6.2,-121.75 0.7,-181.7 -5.4,-60.27 -26,-118.8 -33.3,-178.56 -7.3,-60.05 -1.3,-121.86 -10.4,-181.36 -9.1,-59.83 -33.2,-116.94 -44.1,-176.14 -11,-59.49 -8.7,-121.56 -21.4,-180.42 -12.8,-59.09 -40.4,-114.59 -54.9,-173.04 -14.5,-58.68 -16.1,-120.75 -32.4,-178.71 -16.4,-58.16 -47.3,-111.83 -65.4,-169.24 -18.1,-57.62 -23.5,-119.51 -43.3,-176.36 -19.9,-56.99 -54.1,-108.61 -75.7,-164.82 -21.6,-56.36 -30.7,-117.76 -54,-173.26 -23.4,-55.66 -60.7,-105.04 -85.6,-159.79 -25.1,-54.91 -38,-115.6 -64.6,-169.57 -26.7,-54.08 -67,-101 -95.2,-154.15 -28.4,-53.19 -45,-112.98 -74.9,-165.2 -30,-52.29 -73,-96.64 -104.4,-147.88 -31.6,-51.36 -51.8,-110 -84.8,-160.24 -33.1,-50.35 -78.7,-91.93 -113.3,-141.12 -34.5,-49.27 -58.3,-106.57 -94.3,-154.68 -36,-48.19 -84.1,-86.85 -121.6,-133.85 -37.5,-47.02 -64.7,-102.71 -103.6,-148.55 -38.9,-45.83 -89.2,-81.44 -129.4,-126.04 -40.3,-44.61 -70.8,-98.51 -112.4,-141.84 -41.6,-43.37 -94,-75.81 -136.9,-117.83 -42.9,-42.03 -76.6,-93.95 -120.7,-134.64 -44.2,-40.68 -98.4,-69.83 -143.8,-109.13 -45.4,-39.31 -82.1,-89.06 -128.7,-126.95 -46.5,-37.84 -102.4,-63.6 -150.1,-100.03 -47.6,-36.39 -87.4,-83.75 -136.1,-118.69 -48.7,-34.9 -106.1,-57.14 -155.9,-90.55 -49.8,-33.37 -92.3,-78.2 -143.1,-110.03 -50.8,-31.8 -109.4,-50.43 -161.1,-80.66 -51.7,-30.24 -96.9,-72.3 -149.6,-100.93 -52.5,-28.59 -112.2,-43.52 -165.7,-70.51 -53.4,-26.91 -101.1,-66.06 -155.4,-91.37 -54.2,-25.23 -114.7,-36.43 -169.8,-60.02 -54.9,-23.51 -104.9,-59.6 -160.7,-81.48 -55.6,-21.79 -116.6,-29.15 -173,-49.23 -56.3,-20.04 -108.4,-52.96 -165.4,-71.29 -56.9,-18.25 -118.2,-21.76 -175.8,-38.29 -57.4,-16.46 -111.4,-46.06 -169.5,-60.77 -57.8,-14.63 -119.3,-14.33 -177.8,-27.21 -58.2,-12.84 -114,-38.97 -172.8,-50.01 -58.7,-11.02 -119.9,-6.87 -179.1,-16.05 -58.9,-9.19 -116.2,-31.8 -175.7,-39.16 -59.08,-7.31 -120.03,0.64 -179.71,-4.89 -59.31,-5.48 -117.8,-24.48 -177.63,-28.18 -59.46,-3.62 -119.82,8.1 -179.72,6.27 -59.54,-1.83 -119.07,-17.24 -179.01,-17.24 z m 0,12208.38 c -64.54,0 -129.07,13.5 -193.12,11.5 -64.5,-1.9 -128.1,-19.3 -192.11,-23.3 -64.39,-3.9 -129.59,5.6 -193.46,-0.3 -64.23,-6 -126.64,-27.3 -190.32,-35.2 -64.01,-7.9 -129.66,-2.5 -193.08,-12.3 -63.71,-9.9 -124.74,-35.1 -187.82,-46.9 -63.38,-11.9 -129.25,-10.6 -191.92,-24.4 -63.01,-13.9 -122.35,-42.8 -184.61,-58.6 -62.48,-15.8 -128.32,-18.6 -190.1,-36.3 -61.96,-17.8 -119.44,-50.4 -180.61,-70 -61.4,-19.8 -126.91,-26.7 -187.49,-48.2 -60.76,-21.7 -116.08,-57.8 -175.98,-81.3 -60.02,-23.5 -125.04,-34.5 -184.16,-59.8 -59.28,-25.4 -112.31,-64.9 -170.65,-92.1 -58.49,-27.2 -122.69,-42.3 -180.17,-71.3 -57.59,-29 -108.09,-71.8 -164.68,-102.5 -56.7,-30.8 -119.85,-49.9 -175.46,-82.4 -55.69,-32.6 -103.51,-78.4 -158.11,-112.6 -54.68,-34.3 -116.57,-57.2 -170.09,-93.2 -53.64,-35.9 -98.54,-84.6 -150.98,-122.2 -52.48,-37.6 -112.83,-64.3 -164.12,-103.5 -51.32,-39.2 -93.16,-90.6 -143.25,-131.4 -50.09,-40.8 -108.69,-71.2 -157.51,-113.5 -48.82,-42.3 -87.53,-96.2 -135.04,-140 -47.52,-43.8 -104.18,-77.7 -150.35,-123 -46.17,-45.2 -81.52,-101.4 -126.27,-148.1 -44.79,-46.6 -99.28,-84 -142.62,-132 -43.33,-48 -75.21,-106.3 -117.08,-155.7 -41.88,-49.3 -94.03,-90 -134.37,-140.6 -40.35,-50.6 -68.61,-110.7 -107.43,-162.6 -38.78,-51.8 -88.34,-95.7 -125.56,-148.7 -37.21,-53 -61.77,-114.8 -97.38,-168.9 -35.53,-54.1 -82.34,-101 -116.27,-156.3 -33.89,-55.1 -54.68,-118.3 -86.89,-174.6 -32.17,-56.2 -76.03,-105.9 -106.52,-163.1 -30.46,-57.2 -47.33,-121.6 -76.09,-179.8 -28.68,-58.1 -69.41,-110.4 -96.37,-169.5 -26.88,-58.9 -39.78,-124.3 -64.91,-184.2 -25.06,-59.7 -62.52,-114.5 -85.79,-175.2 -23.22,-60.5 -32.09,-126.4 -53.5,-187.8 -21.34,-61.2 -55.37,-118.2 -74.88,-180.3 -19.44,-61.8 -24.25,-128.2 -41.85,-190.8 -17.54,-62.4 -47.99,-121.4 -63.66,-184.6 -15.61,-62.9 -16.34,-129.5 -30.06,-193.1 -13.67,-63.3 -40.44,-124.2 -52.22,-188.2 -11.72,-63.7 -8.36,-130.2 -18.17,-194.6 -9.76,-64.1 -32.77,-126.5 -40.62,-191.1 -7.8,-64.3 -0.4,-130.5 -6.28,-195.4 -5.84,-64.5 -25.01,-128.2 -28.92,-193.3 -3.89,-64.6 7.5,-130.2 5.56,-195.4 -1.94,-64.8 -17.25,-129.5 -17.25,-194.72 0,-65.21 15.31,-129.97 17.25,-194.69 1.94,-65.17 -9.45,-130.75 -5.56,-195.39 3.91,-65.06 23.08,-128.77 28.93,-193.31 5.88,-64.87 -1.53,-131.05 6.28,-195.36 7.84,-64.68 30.85,-127.09 40.61,-191.14 9.81,-64.39 6.46,-130.86 18.17,-194.61 11.78,-64.05 38.56,-124.89 52.23,-188.23 13.72,-63.64 14.45,-130.19 30.05,-193.08 15.67,-63.19 46.13,-122.24 63.67,-184.61 17.6,-62.63 22.41,-129.03 41.85,-190.84 19.52,-62.04 53.54,-119.07 74.88,-180.24 21.41,-61.4 30.28,-127.36 53.5,-187.86 23.28,-60.69 60.74,-115.49 85.8,-175.21 25.12,-59.94 38.03,-125.22 64.91,-184.16 26.95,-59.08 67.7,-111.41 96.37,-169.49 28.74,-58.23 45.61,-122.57 76.07,-179.75 30.49,-57.26 74.35,-106.94 106.52,-163.15 32.25,-56.29 53.04,-119.48 86.89,-174.65 33.93,-55.27 80.74,-102.12 116.31,-156.24 35.61,-54.16 60.17,-115.93 97.34,-168.93 37.25,-53.04 86.82,-96.9 125.6,-148.7 38.78,-51.85 67.07,-111.98 107.42,-162.55 40.35,-50.62 92.49,-91.34 134.34,-140.68 41.87,-49.34 73.75,-107.61 117.08,-155.61 43.34,-48 97.87,-85.43 142.62,-132.09 44.79,-46.62 80.14,-102.83 126.31,-148.07 46.17,-45.24 102.83,-79.2 150.34,-123.02 47.52,-43.78 86.19,-97.68 135.05,-139.97 48.78,-42.29 107.42,-72.71 157.51,-113.51 50.05,-40.75 91.93,-92.15 143.25,-131.38 51.28,-39.15 111.64,-65.88 164.12,-103.5 52.44,-37.55 97.34,-86.26 150.94,-122.24 53.56,-35.91 115.41,-58.86 170.09,-93.13 54.64,-34.22 102.42,-80.06 158.14,-112.64 55.62,-32.51 118.77,-51.55 175.47,-82.34 56.55,-30.79 107.08,-73.53 164.68,-102.57 57.48,-29 121.67,-44.04 180.16,-71.25 58.34,-27.18 111.34,-66.7 170.65,-92.12 59.13,-25.31 124.11,-36.32 184.16,-59.83 59.87,-23.44 115.23,-59.57 175.99,-81.22 60.54,-21.58 126.08,-28.48 187.48,-48.19 61.18,-19.63 118.62,-52.25 180.62,-70.02 61.74,-17.73 127.58,-20.53 190.09,-36.35 62.26,-15.79 121.61,-44.68 184.58,-58.57 62.7,-13.81 128.58,-12.46 191.96,-24.37 63.08,-11.83 124.07,-37.03 187.78,-46.92 63.42,-9.85 129.07,-4.4 193.08,-12.35 63.68,-7.88 126.09,-29.19 190.32,-35.12 63.87,-5.94 129.07,3.58 193.46,-0.38 64.01,-3.92 127.61,-21.35 192.11,-23.33 64.05,-1.94 128.58,11.54 193.12,11.54 64.53,0 129.07,-13.48 193.12,-11.54 64.49,1.98 128.1,19.41 192.07,23.33 64.42,3.96 129.63,-5.56 193.49,0.38 64.24,5.93 126.69,27.24 190.29,35.12 64,7.95 129.7,2.5 193.1,12.35 63.7,9.89 124.8,35.09 187.8,46.92 63.4,11.91 129.3,10.56 192,24.37 63,13.89 122.3,42.81 184.5,58.57 62.5,15.82 128.4,18.62 190.1,36.35 62,17.77 119.5,50.39 180.7,70.02 61.3,19.71 126.9,26.65 187.5,48.19 60.7,21.65 116,57.78 175.9,81.22 60.1,23.51 125,34.52 184.2,59.87 59.3,25.38 112.3,64.9 170.7,92.08 58.4,27.21 122.6,42.29 180.1,71.25 57.6,29.04 108.1,71.81 164.7,102.57 56.7,30.83 119.9,49.87 175.5,82.37 55.7,32.55 103.5,78.39 158.1,112.61 54.7,34.31 116.5,57.22 170.1,93.17 53.6,35.94 98.5,84.65 150.9,122.24 52.5,37.58 112.9,64.31 164.2,103.5 51.2,39.23 93.1,90.62 143.2,131.38 50.1,40.76 108.7,71.18 157.5,113.47 48.8,42.33 87.6,96.22 135,140.01 47.6,43.78 104.2,77.78 150.4,123.02 46.2,45.24 81.5,101.41 126.3,148.07 44.8,46.65 99.3,84.05 142.6,132.09 43.3,48 75.2,106.26 117.1,155.61 41.9,49.3 94,90.02 134.4,140.64 40.3,50.61 68.6,110.74 107.4,162.58 38.8,51.81 88.3,95.67 125.5,148.71 37.2,52.96 61.8,114.77 97.4,168.93 35.6,54.08 82.4,100.96 116.3,156.2 33.9,55.21 54.6,118.36 86.9,174.69 32.2,56.17 76,105.89 106.5,163.14 30.5,57.18 47.3,121.53 76.1,179.72 28.7,58.12 69.4,110.45 96.3,169.53 26.9,58.94 39.8,124.22 65,184.12 25,59.76 62.5,114.56 85.8,175.21 23.2,60.5 32,126.49 53.5,187.86 21.3,61.21 55.3,118.2 74.8,180.24 19.5,61.81 24.3,128.21 41.9,190.84 17.5,62.41 48,121.45 63.6,184.61 15.6,62.89 16.4,129.48 30.1,193.08 13.7,63.38 40.4,124.18 52.2,188.23 11.7,63.75 8.4,130.22 18.2,194.61 9.8,64.05 32.8,126.46 40.6,191.14 7.8,64.31 0.4,130.45 6.3,195.36 5.8,64.54 25,128.21 28.9,193.31 3.9,64.64 -7.5,130.22 -5.5,195.39 1.9,64.72 17.2,129.48 17.2,194.69 0,65.22 -15.3,129.92 -17.2,194.72 -2,65.2 9.4,130.8 5.5,195.4 -3.9,65.1 -23.1,128.8 -28.9,193.3 -5.9,64.9 1.5,131 -6.3,195.4 -7.8,64.6 -30.8,127 -40.6,191.1 -9.8,64.4 -6.5,130.9 -18.2,194.6 -11.8,64 -38.5,124.9 -52.2,188.2 -13.7,63.6 -14.5,130.2 -30.1,193.1 -15.6,63.2 -46.1,122.2 -63.6,184.6 -17.6,62.6 -22.4,129 -41.9,190.9 -19.5,62 -53.5,119 -74.8,180.2 -21.5,61.4 -30.3,127.4 -53.5,187.9 -23.3,60.6 -60.8,115.4 -85.8,175.2 -25.2,59.9 -38.1,125.2 -65,184.1 -26.9,59.1 -67.7,111.5 -96.3,169.5 -28.8,58.2 -45.6,122.6 -76.1,179.8 -30.5,57.2 -74.3,106.9 -106.6,163.1 -32.2,56.3 -53,119.5 -86.8,174.7 -34,55.2 -80.8,102.1 -116.3,156.2 -35.6,54.2 -60.2,116 -97.4,168.9 -37.2,53.1 -86.8,96.9 -125.6,148.7 -38.7,51.9 -67,112 -107.4,162.6 -40.3,50.6 -92.5,91.3 -134.3,140.6 -41.9,49.4 -73.8,107.7 -117.1,155.7 -43.4,48 -97.9,85.4 -142.6,132 -44.8,46.7 -80.2,102.9 -126.3,148.2 -46.2,45.2 -102.9,79.2 -150.4,122.9 -47.5,43.8 -86.2,97.7 -135,140 -48.8,42.3 -107.4,72.8 -157.5,113.5 -50.1,40.8 -92,92.2 -143.3,131.4 -51.3,39.2 -111.6,65.9 -164.1,103.5 -52.4,37.6 -97.3,86.3 -151,122.3 -53.5,35.9 -115.4,58.8 -170.1,93.1 -54.6,34.2 -102.4,80.1 -158.1,112.6 -55.6,32.5 -118.7,51.6 -175.4,82.4 -56.6,30.7 -107.1,73.5 -164.7,102.6 -57.5,28.9 -121.7,44 -180.2,71.2 -58.3,27.2 -111.3,66.7 -170.6,92.1 -59.2,25.3 -124.1,36.3 -184.2,59.8 -59.9,23.5 -115.2,59.6 -176,81.3 -60.5,21.5 -126.1,28.4 -187.5,48.2 -61.1,19.6 -118.6,52.2 -180.6,70 -61.7,17.7 -127.6,20.5 -190.1,36.3 -62.2,15.8 -121.6,44.7 -184.5,58.6 -62.7,13.8 -128.6,12.5 -192,24.4 -63.1,11.8 -124.1,37 -187.8,46.9 -63.4,9.8 -129.1,4.4 -193.1,12.3 -63.6,7.9 -126.05,29.2 -190.29,35.2 -63.86,5.9 -129.07,-3.6 -193.45,0.3 -64.01,4 -127.62,21.4 -192.11,23.3 -64.05,2 -128.59,-11.5 -193.12,-11.5" /></g><g
         transform="scale(2.71138)"
         id="g74"><path
           id="path76"
           style="fill:#78a2a2;fill-opacity:1;fill-rule:nonzero;stroke:none"
           d="m 9220.4,3849.77 c -61.71,0 -123,15.72 -184.26,17.56 -61.67,1.84 -123.78,-10.07 -184.97,-6.34 -61.59,3.72 -121.81,23.08 -182.85,28.69 -61.45,5.6 -124.15,-2.51 -185.04,4.94 -61.18,7.53 -120.12,30.58 -180.72,39.87 -60.96,9.41 -124.07,5.16 -184.37,16.38 -60.63,11.25 -117.98,37.87 -177.95,50.97 -60.19,13.13 -123.45,12.79 -183.01,27.7 -59.75,15 -115.36,45.14 -174.41,61.92 -59.27,16.82 -122.41,20.39 -180.94,39.02 -58.68,18.66 -112.35,52.19 -170.25,72.58 -58.09,20.47 -120.9,28 -178.14,50.16 -57.42,22.28 -108.87,59.09 -165.45,83.02 -56.68,24.05 -118.9,35.41 -174.67,61.11 -55.95,25.79 -105,65.69 -159.99,93.13 -55.07,27.48 -116.47,42.67 -170.58,71.81 -54.21,29.17 -100.72,72.03 -153.9,102.79 -53.3,30.83 -113.64,49.79 -165.82,82.21 -52.3,32.42 -96.12,78.08 -147.31,112.08 -51.27,34.04 -110.31,56.69 -160.47,92.24 -50.2,35.59 -91.1,83.83 -140.11,120.9 -49.09,37.1 -106.63,63.36 -154.5,101.9 -47.91,38.62 -85.79,89.29 -132.44,129.31 -46.73,40.02 -102.57,69.74 -148.01,111.16 -45.44,41.46 -80.11,94.34 -124.25,137.16 -44.15,42.82 -98.11,75.87 -140.89,120.02 -42.82,44.14 -74.21,99.06 -115.66,144.5 -41.46,45.44 -93.24,81.73 -133.29,128.42 -40.02,46.69 -68.01,103.42 -106.59,151.32 -38.58,47.88 -88.07,87.27 -125.18,136.36 -37.06,49.01 -61.51,107.36 -97.11,157.55 -35.55,50.13 -82.54,92.5 -116.58,143.77 -33.97,51.19 -54.8,110.94 -87.22,163.24 -32.42,52.22 -76.68,97.36 -107.51,150.66 -30.76,53.18 -47.87,114.07 -77.05,168.29 -29.1,54.1 -70.52,101.9 -97.99,157 -27.44,54.96 -40.72,116.81 -66.5,172.72 -25.71,55.8 -64.06,106.07 -88.11,162.76 -23.96,56.57 -33.41,119.09 -55.67,176.51 -22.2,57.28 -57.37,109.84 -77.84,167.93 -20.4,57.9 -25.97,120.93 -44.62,179.61 -18.6,58.53 -50.45,113.19 -67.28,172.46 -16.76,59.05 -18.4,122.26 -33.38,182.05 -14.93,59.52 -43.32,116.02 -56.46,176.25 -13.06,59.94 -10.78,123.15 -22.04,183.78 -11.2,60.31 -36.04,118.47 -45.43,179.4 -9.34,60.63 -3.15,123.59 -10.66,184.77 -7.45,60.89 -28.66,120.46 -34.28,181.9 -5.59,61.04 4.44,123.48 0.7,185.07 -3.71,61.19 -21.25,121.97 -23.11,183.64 -1.86,61.26 11.96,123 11.96,184.7 0,61.74 -13.82,123.44 -11.96,184.68 1.86,61.7 19.4,122.5 23.11,183.7 3.74,61.5 -6.29,124 -0.71,185.1 5.63,61.4 26.84,121 34.29,181.8 7.51,61.3 1.32,124.2 10.66,184.8 9.39,61 34.23,119.1 45.43,179.4 11.26,60.7 8.98,123.9 22.04,183.8 13.14,60.2 41.53,116.7 56.46,176.3 14.98,59.8 16.62,123 33.38,182 16.84,59.3 48.69,113.9 67.28,172.5 18.66,58.7 24.22,121.7 44.62,179.6 20.48,58.1 55.65,110.6 77.85,167.9 22.26,57.4 31.71,120 55.66,176.5 24.05,56.7 62.4,107 88.11,162.8 25.78,55.9 39.09,117.8 66.5,172.7 27.51,55.1 68.89,102.9 97.99,157 29.18,54.2 46.29,115.1 77.05,168.3 30.83,53.3 75.09,98.5 107.51,150.7 32.45,52.3 53.25,112 87.26,163.2 34.04,51.3 80.99,93.6 116.54,143.8 35.6,50.2 60.05,108.5 97.15,157.5 37.1,49.1 86.6,88.5 125.14,136.4 38.62,47.9 66.57,104.6 106.63,151.3 40.01,46.7 91.83,83 133.25,128.4 41.45,45.5 72.84,100.4 115.66,144.5 42.82,44.2 96.74,77.2 140.89,120 44.14,42.9 78.85,95.7 124.29,137.2 45.44,41.4 101.27,71.1 147.97,111.2 46.69,40 84.53,90.6 132.44,129.3 47.91,38.5 105.44,64.8 154.53,101.9 49.02,37 89.92,85.3 140.12,120.9 50.12,35.5 109.2,58.2 160.47,92.2 51.19,34 94.97,79.7 147.27,112.1 52.22,32.4 112.56,51.4 165.85,82.2 53.18,30.8 99.69,73.6 153.91,102.8 54.1,29.1 115.47,44.3 170.58,71.8 54.95,27.4 104.04,67.3 159.95,93.1 55.8,25.7 118.02,37.1 174.71,61.1 56.54,24 107.99,60.8 165.41,83 57.28,22.2 120.05,29.7 178.18,50.2 57.9,20.4 111.53,53.9 170.24,72.6 58.5,18.6 121.64,22.2 180.94,39 59.05,16.8 114.63,46.9 174.42,61.9 59.52,14.9 122.78,14.6 183,27.7 59.94,13.1 117.32,39.7 177.92,51 60.34,11.2 123.41,7 184.37,16.3 60.64,9.4 119.54,32.4 180.72,39.9 60.89,7.5 123.59,-0.6 185.04,5 61.04,5.6 121.26,25 182.82,28.7 61.22,3.7 123.33,-8.2 185,-6.4 61.26,1.9 122.55,17.6 184.26,17.6 61.7,0 123,-15.7 184.26,-17.6 61.66,-1.8 123.77,10.1 184.96,6.4 61.59,-3.7 121.78,-23.1 182.86,-28.7 61.41,-5.6 124.14,2.5 185,-5 61.22,-7.5 120.12,-30.5 180.72,-39.9 61,-9.3 124.1,-5.1 184.4,-16.3 60.6,-11.3 118,-37.9 178,-51 60.1,-13.1 123.4,-12.8 182.9,-27.7 59.8,-15 115.4,-45.1 174.5,-61.9 59.2,-16.8 122.4,-20.4 180.9,-39 58.7,-18.7 112.3,-52.2 170.3,-72.6 58.1,-20.5 120.9,-28 178.1,-50.2 57.4,-22.2 108.9,-59 165.4,-83 56.7,-24 119,-35.4 174.7,-61.1 55.9,-25.8 105,-65.7 160,-93.1 55.1,-27.5 116.5,-42.7 170.6,-71.8 54.2,-29.2 100.7,-72.1 153.9,-102.8 53.3,-30.8 113.6,-49.8 165.8,-82.2 52.3,-32.5 96.1,-78.1 147.3,-112.1 51.3,-34 110.3,-56.7 160.5,-92.2 50.2,-35.6 91.1,-83.9 140.1,-121 49.1,-37.1 106.6,-63.3 154.5,-101.9 47.9,-38.6 85.8,-89.2 132.4,-129.2 46.7,-40.1 102.6,-69.8 148,-111.2 45.5,-41.5 80.2,-94.4 124.3,-137.2 44.2,-42.8 98.1,-75.9 140.9,-120 42.8,-44.2 74.2,-99.1 115.7,-144.5 41.4,-45.5 93.2,-81.7 133.2,-128.4 40.1,-46.7 68.1,-103.5 106.6,-151.3 38.6,-47.9 88.1,-87.3 125.2,-136.4 37.1,-49 61.5,-107.3 97.1,-157.5 35.6,-50.2 82.5,-92.5 116.6,-143.8 34,-51.2 54.8,-110.9 87.2,-163.2 32.4,-52.3 76.7,-97.4 107.5,-150.7 30.8,-53.2 47.9,-114.1 77.1,-168.3 29.1,-54.1 70.5,-101.9 98,-157 27.4,-55 40.7,-116.8 66.5,-172.8 25.7,-55.7 64,-106 88,-162.7 24,-56.5 33.5,-119.1 55.7,-176.5 22.2,-57.3 57.4,-109.9 77.9,-167.9 20.4,-57.9 26,-120.9 44.6,-179.7 18.6,-58.5 50.4,-113.1 67.3,-172.4 16.7,-59 18.4,-122.2 33.4,-182 14.9,-59.6 43.3,-116.1 56.4,-176.3 13.1,-60 10.8,-123.2 22.1,-183.8 11.2,-60.3 36,-118.4 45.4,-179.4 9.3,-60.6 3.2,-123.5 10.7,-184.8 7.4,-60.8 28.6,-120.4 34.3,-181.8 5.5,-61.1 -4.5,-123.6 -0.7,-185.1 3.6,-61.2 21.2,-122 23,-183.7 1.9,-61.24 -11.9,-122.94 -11.9,-184.68 0,-61.7 13.8,-123.44 11.9,-184.7 -1.8,-61.67 -19.4,-122.45 -23,-183.64 -3.8,-61.55 6.2,-123.99 0.7,-185.07 -5.7,-61.44 -26.9,-121.01 -34.3,-181.9 -7.5,-61.18 -1.4,-124.14 -10.7,-184.77 -9.4,-60.93 -34.2,-119.09 -45.4,-179.43 -11.3,-60.6 -9,-123.81 -22.1,-183.75 -13.1,-60.23 -41.5,-116.77 -56.4,-176.29 -15,-59.79 -16.7,-123 -33.4,-182.05 -16.9,-59.27 -48.7,-113.93 -67.3,-172.42 -18.7,-58.72 -24.2,-121.71 -44.6,-179.61 -20.5,-58.09 -55.7,-110.69 -77.9,-167.93 -22.2,-57.42 -31.7,-119.97 -55.7,-176.51 -24,-56.69 -62.4,-106.99 -88,-162.8 -25.8,-55.91 -39.1,-117.72 -66.6,-172.71 -27.4,-55.07 -68.8,-102.9 -98,-157.01 -29.1,-54.21 -46.2,-115.11 -77,-168.29 -30.8,-53.26 -75.1,-98.44 -107.5,-150.66 -32.4,-52.3 -53.2,-112.05 -87.2,-163.24 -34.1,-51.26 -81,-93.64 -116.6,-143.76 -35.6,-50.2 -60,-108.51 -97.1,-157.56 -37.1,-49.05 -86.6,-88.48 -125.2,-136.35 -38.6,-47.91 -66.6,-104.63 -106.6,-151.29 -40,-46.69 -91.8,-83.02 -133.2,-128.42 -41.5,-45.48 -72.9,-100.36 -115.7,-144.5 -42.9,-44.15 -96.7,-77.23 -140.9,-120.05 -44.2,-42.82 -78.8,-95.67 -124.3,-137.13 -45.4,-41.45 -101.3,-71.14 -148,-111.2 -46.6,-40.01 -84.5,-90.69 -132.4,-129.27 -47.9,-38.58 -105.4,-64.8 -154.5,-101.9 -49,-37.1 -89.9,-85.34 -140.1,-120.93 -50.2,-35.56 -109.2,-58.2 -160.5,-92.25 -51.2,-34 -95,-79.62 -147.3,-112.08 -52.2,-32.38 -112.5,-51.38 -165.8,-82.17 -53.2,-30.8 -99.7,-73.66 -153.9,-102.83 -54.1,-29.1 -115.5,-44.29 -170.6,-71.77 -55,-27.44 -104.1,-67.34 -160,-93.13 -55.8,-25.7 -118,-37.1 -174.7,-61.11 -56.6,-23.97 -108,-60.74 -165.4,-83.02 -57.3,-22.2 -120.1,-29.69 -178.2,-50.16 -57.9,-20.39 -111.5,-53.95 -170.2,-72.62 -58.5,-18.59 -121.7,-22.16 -181,-39.02 -59,-16.74 -114.6,-46.88 -174.4,-61.88 -59.5,-14.91 -122.8,-14.57 -183,-27.74 -59.9,-13.06 -117.3,-39.68 -177.9,-50.93 -60.3,-11.22 -123.4,-6.97 -184.4,-16.38 -60.6,-9.29 -119.5,-32.34 -180.69,-39.87 -60.89,-7.45 -123.59,0.66 -185.03,-4.94 -61.08,-5.61 -121.27,-24.97 -182.86,-28.69 -61.19,-3.73 -123.3,8.18 -184.96,6.34 -61.26,-1.84 -122.56,-17.56 -184.26,-17.56 z m 0,12436.53 c -66.43,0 -132.85,13.7 -198.79,11.7 -66.39,-2 -131.86,-19.8 -197.73,-23.8 -66.27,-4 -133.4,5.7 -199.12,-0.3 -66.09,-6.1 -130.38,-27.8 -195.88,-35.8 -65.91,-8.1 -133.47,-2.5 -198.75,-12.6 -65.58,-10.1 -128.39,-35.7 -193.3,-47.8 -65.24,-12.1 -133.07,-10.7 -197.58,-24.8 -64.83,-14.1 -125.91,-43.6 -190.01,-59.7 -64.32,-16.1 -132.07,-19 -195.66,-37 -63.76,-18.1 -122.92,-51.3 -185.91,-71.3 -63.18,-20.1 -130.64,-27.2 -192.97,-49.1 -62.51,-22.1 -119.5,-58.9 -181.12,-82.8 -61.82,-23.9 -128.72,-35.1 -189.58,-60.9 -61.04,-25.9 -115.62,-66.2 -175.66,-93.8 -60.19,-27.8 -126.25,-43.1 -185.44,-72.6 -59.27,-29.6 -111.28,-73.2 -169.51,-104.5 -58.35,-31.4 -123.33,-50.8 -180.57,-83.9 -57.36,-33.2 -106.55,-79.9 -162.76,-114.8 -56.28,-34.9 -119.98,-58.2 -175.08,-94.8 -55.18,-36.7 -101.42,-86.3 -155.38,-124.6 -54.03,-38.3 -116.14,-65.5 -168.92,-105.4 -52.85,-40 -95.93,-92.3 -147.45,-133.8 -51.56,-41.6 -111.9,-72.6 -162.17,-115.7 -50.23,-43 -90.07,-97.9 -138.97,-142.5 -48.9,-44.7 -107.25,-79.3 -154.76,-125.4 -47.5,-46.1 -83.9,-103.3 -129.97,-150.8 -46.1,-47.5 -102.19,-85.6 -146.82,-134.6 -44.59,-48.9 -77.42,-108.2 -120.49,-158.5 -43.08,-50.2 -96.74,-91.7 -138.31,-143.3 -41.53,-51.5 -70.63,-112.8 -110.57,-165.6 -39.91,-52.7 -90.91,-97.4 -129.23,-151.5 -38.29,-53.9 -63.59,-116.9 -100.21,-172.1 -36.59,-55.1 -84.79,-102.8 -119.72,-159.1 -34.85,-56.2 -56.24,-120.6 -89.41,-177.9 -33.12,-57.3 -78.28,-107.9 -109.67,-166.2 -31.34,-58.2 -48.71,-123.8 -78.29,-183.1 -29.52,-59.2 -71.45,-112.5 -99.19,-172.7 -27.67,-60 -40.96,-126.5 -66.82,-187.6 -25.79,-60.8 -64.35,-116.6 -88.31,-178.4 -23.89,-61.7 -33.03,-128.9 -55.07,-191.4 -21.96,-62.3 -56.98,-120.4 -77.06,-183.6 -20.01,-63 -24.97,-130.6 -43.09,-194.4 -18.04,-63.6 -49.39,-123.7 -65.52,-188 -16.06,-64.1 -16.81,-132 -30.94,-196.8 -14.07,-64.5 -41.63,-126.5 -53.75,-191.7 -12.06,-64.9 -8.6,-132.7 -18.7,-198.3 -10.05,-65.2 -33.73,-128.8 -41.81,-194.7 -8.03,-65.5 -0.41,-132.9 -6.46,-199 -6.01,-65.7 -25.75,-130.6 -29.77,-196.9 -4,-65.9 7.72,-132.6 5.72,-199 -2,-65.98 -17.75,-131.96 -17.75,-198.38 0,-66.42 15.75,-132.41 17.75,-198.35 2,-66.35 -9.72,-133.18 -5.72,-199.01 4.02,-66.32 23.76,-131.19 29.77,-196.91 6.06,-66.13 -1.56,-133.51 6.47,-199.02 8.07,-65.9 31.75,-129.45 41.8,-194.69 10.1,-65.62 6.65,-133.33 18.71,-198.28 12.12,-65.24 39.68,-127.2 53.75,-191.75 14.12,-64.8 14.87,-132.62 30.94,-196.69 16.13,-64.35 47.48,-124.51 65.53,-188.05 18.11,-63.81 23.06,-131.45 43.08,-194.41 20.08,-63.21 55.11,-121.3 77.07,-183.63 22.04,-62.52 31.17,-129.71 55.06,-191.34 23.96,-61.82 62.52,-117.62 88.32,-178.51 25.86,-61 39.14,-127.54 66.81,-187.58 27.74,-60.19 69.68,-113.48 99.2,-172.68 29.57,-59.27 46.95,-124.84 78.29,-183.08 31.39,-58.35 76.54,-108.95 109.66,-166.19 33.18,-57.35 54.55,-121.71 89.44,-177.95 34.92,-56.28 83.09,-104.01 119.68,-159.15 36.66,-55.17 61.96,-118.09 100.21,-172.05 38.32,-54.03 89.36,-98.73 129.27,-151.51 39.94,-52.81 69.04,-114.07 110.57,-165.6 41.53,-51.56 95.19,-93.01 138.27,-143.28 43.11,-50.23 75.94,-109.61 120.52,-158.52 44.63,-48.9 100.73,-87 146.79,-134.54 46.11,-47.51 82.47,-104.75 130.01,-150.85 47.5,-46.06 105.85,-80.69 154.76,-125.32 48.9,-44.59 88.7,-99.51 138.97,-142.59 50.23,-43.11 110.57,-74.05 162.13,-115.62 51.56,-41.49 94.64,-93.86 147.45,-133.81 52.78,-39.94 114.92,-67.16 168.92,-105.44 53.99,-38.28 100.2,-87.93 155.38,-124.55 55.14,-36.59 118.8,-59.93 175.11,-94.86 56.21,-34.89 105.41,-81.58 162.73,-114.74 57.27,-33.12 122.26,-52.52 180.6,-83.9 58.24,-31.35 110.24,-74.91 169.51,-104.49 59.16,-29.5 125.25,-44.85 185.44,-72.58 60.05,-27.66 114.63,-67.94 175.67,-93.83 60.85,-25.78 127.72,-36.99 189.54,-60.93 61.62,-23.9 118.61,-60.7 181.12,-82.76 62.37,-21.94 129.82,-28.99 193,-49.09 62.96,-20.02 122.12,-53.22 185.92,-71.33 63.55,-18.03 131.3,-20.91 195.66,-37.03 64.06,-16.08 125.14,-45.55 189.97,-59.67 64.55,-14.05 132.34,-12.69 197.58,-24.82 64.91,-12.06 127.72,-37.7 193.3,-47.8 65.28,-10.03 132.84,-4.5 198.75,-12.58 65.5,-8 129.75,-29.72 195.88,-35.77 65.72,-6.05 132.85,3.65 199.12,-0.37 65.87,-4.02 131.34,-21.76 197.73,-23.75 65.94,-2 132.36,11.72 198.79,11.72 66.42,0 132.84,-13.72 198.79,-11.72 66.39,1.99 131.85,19.73 197.72,23.75 66.28,4.02 133.4,-5.68 199.12,0.37 66.1,6.05 130.38,27.77 195.87,35.77 65.9,8.08 133.5,2.55 198.8,12.58 65.5,10.1 128.4,35.74 193.3,47.8 65.2,12.13 133,10.77 197.5,24.82 64.9,14.12 126,43.59 190,59.67 64.4,16.16 132.1,19 195.7,37.03 63.8,18.11 122.9,51.34 185.9,71.33 63.2,20.1 130.7,27.15 193,49.09 62.5,22.06 119.5,58.86 181.1,82.76 61.8,23.94 128.7,35.15 189.6,60.97 61,25.85 115.6,66.13 175.7,93.79 60.1,27.73 126.2,43.08 185.4,72.58 59.3,29.58 111.3,73.17 169.5,104.49 58.4,31.42 123.3,50.78 180.6,83.9 57.3,33.2 106.5,79.89 162.7,114.74 56.3,34.93 120,58.27 175.1,94.9 55.2,36.62 101.4,86.23 155.4,124.51 54,38.32 116.1,65.54 168.9,105.44 52.8,39.95 95.9,92.32 147.5,133.85 51.5,41.53 111.9,72.51 162.1,115.58 50.3,43.12 90.1,98.03 139,142.63 48.9,44.62 107.2,79.22 154.8,125.32 47.5,46.06 83.9,103.3 129.9,150.84 46.1,47.51 102.2,85.64 146.8,134.55 44.6,48.9 77.4,108.25 120.5,158.52 43.1,50.23 96.8,91.72 138.4,143.28 41.4,51.52 70.6,112.78 110.5,165.6 39.9,52.78 90.9,97.48 129.3,151.51 38.2,53.96 63.5,116.88 100.2,172.05 36.6,55.14 84.7,102.86 119.6,159.14 34.9,56.21 56.3,120.57 89.5,177.92 33.1,57.24 78.3,107.88 109.7,166.23 31.3,58.23 48.7,123.81 78.2,183.08 29.6,59.16 71.5,112.49 99.2,172.68 27.7,60.04 41,126.54 66.9,187.58 25.8,60.85 64.3,116.65 88.3,178.47 23.9,61.63 33,128.82 55,191.38 22,62.33 57,120.41 77.1,183.59 20,63 24.9,130.64 43.1,194.41 18,63.58 49.4,123.73 65.5,188.05 16.1,64.07 16.8,131.89 30.9,196.73 14.1,64.51 41.7,126.5 53.8,191.71 12,64.95 8.6,132.66 18.7,198.28 10,65.24 33.7,128.79 41.8,194.66 8,65.54 0.4,132.92 6.5,199.05 6,65.72 25.7,130.59 29.8,196.87 3.9,65.87 -7.8,132.66 -5.8,199.05 2,65.94 17.8,131.93 17.8,198.35 0,66.42 -15.8,132.4 -17.8,198.38 -2,66.4 9.7,133.1 5.8,199 -4.1,66.3 -23.8,131.2 -29.8,196.9 -6.1,66.1 1.5,133.5 -6.5,199 -8.1,65.9 -31.8,129.5 -41.8,194.7 -10.1,65.6 -6.7,133.4 -18.7,198.3 -12.1,65.2 -39.7,127.2 -53.8,191.7 -14.1,64.9 -14.8,132.7 -30.9,196.8 -16.1,64.3 -47.5,124.4 -65.5,188 -18.2,63.8 -23.1,131.4 -43.1,194.4 -20.1,63.2 -55.1,121.3 -77.1,183.6 -22,62.6 -31.1,129.8 -55,191.4 -24,61.8 -62.5,117.6 -88.4,178.5 -25.8,61 -39.1,127.5 -66.8,187.5 -27.7,60.2 -69.7,113.6 -99.2,172.7 -29.5,59.3 -46.9,124.9 -78.3,183.1 -31.4,58.3 -76.5,109 -109.6,166.2 -33.2,57.4 -54.6,121.7 -89.5,177.9 -34.9,56.3 -83,104.1 -119.6,159.2 -36.7,55.2 -62,118.1 -100.3,172.1 -38.3,54 -89.3,98.7 -129.2,151.4 -40,52.9 -69.1,114.1 -110.6,165.6 -41.5,51.6 -95.2,93.1 -138.3,143.3 -43.1,50.3 -75.9,109.7 -120.5,158.5 -44.6,49 -100.7,87.1 -146.8,134.6 -46.1,47.5 -82.5,104.8 -130,150.9 -47.5,46 -105.8,80.7 -154.7,125.3 -48.9,44.6 -88.8,99.5 -139,142.6 -50.3,43.1 -110.6,74 -162.2,115.6 -51.5,41.5 -94.6,93.9 -147.4,133.8 -52.8,39.9 -114.9,67.1 -168.9,105.5 -54,38.2 -100.2,87.9 -155.4,124.5 -55.1,36.6 -118.8,59.9 -175.1,94.9 -56.2,34.8 -105.4,81.5 -162.8,114.7 -57.2,33.1 -122.2,52.5 -180.5,83.9 -58.3,31.3 -110.3,74.9 -169.5,104.5 -59.2,29.5 -125.3,44.8 -185.5,72.6 -60,27.6 -114.6,67.9 -175.6,93.8 -60.9,25.8 -127.8,37 -189.6,60.9 -61.6,23.9 -118.6,60.7 -181.1,82.8 -62.4,21.9 -129.8,29 -193,49.1 -63,20 -122.1,53.2 -185.9,71.3 -63.6,18.1 -131.3,20.9 -195.7,37 -64,16.1 -125.2,45.6 -190,59.7 -64.5,14.1 -132.3,12.7 -197.5,24.8 -65,12.1 -127.8,37.7 -193.3,47.8 -65.3,10.1 -132.9,4.5 -198.8,12.6 -65.49,8 -129.77,29.7 -195.87,35.8 -65.72,6 -132.84,-3.7 -199.12,0.3 -65.87,4 -131.33,21.8 -197.72,23.8 -65.95,2 -132.37,-11.7 -198.79,-11.7" /></g><g
         transform="scale(2.63425)"
         id="g78"><path
           id="path80"
           style="fill:transparent;fill-opacity:1;fill-rule:nonzero;stroke:none"
           d="m 9490.38,4228.23 c -3262.26,0 -5906.81,2644.59 -5906.81,5906.77 0,3262.3 2644.55,5906.9 5906.81,5906.9 3262.22,0 5906.82,-2644.6 5906.82,-5906.9 0,-3262.18 -2644.6,-5906.77 -5906.82,-5906.77 z m 0,12071.77 c -3404.81,0 -6164.95,-2760.2 -6164.95,-6165 0,-3404.76 2760.14,-6164.91 6164.95,-6164.91 3404.82,0 6164.92,2760.15 6164.92,6164.91 0,3404.8 -2760.1,6165 -6164.92,6165" /></g><g
         transform="scale(1.68845)"
         id="g86"><path
           id="path88"
           style="fill:#8f9295;fill-opacity:1;fill-rule:nonzero;stroke:none"
           d="m 14383.9,16100.5 345.6,199.5 345.5,-199.5 v -398.9 l -345.5,-199.5 -345.6,199.5 v 398.9" /></g><g
         transform="scale(1.67764)"
         id="g90"><path
           id="path92"
           style="fill:#bbbcbd;fill-opacity:1;fill-rule:nonzero;stroke:none"
           d="m 14567.6,16151.8 256.8,148.2 256.7,-148.2 v -296.5 l -256.7,-148.2 -256.8,148.2 v 296.5" /></g><g
         id="g94"><g
           clip-path="url(#clipPath100)"
           id="g96"></g></g></g></g></svg>